<svg xmlns="http://www.w3.org/2000/svg" width="128" height="128" viewBox="0 0 128 128">
  <defs>
    <linearGradient id="g" x1="0" x2="1" y1="0" y2="1">
      <stop offset="0" stop-color="#f97316"/>
      <stop offset="1" stop-color="#ea580c"/>
    </linearGradient>
  </defs>
  <rect width="128" height="128" rx="24" fill="url(#g)"/>
  <g transform="translate(12,18)">
    <ellipse cx="52" cy="50" rx="40" ry="34" fill="#fff8ee"/>
    <circle cx="34" cy="52" r="6" fill="#0f172a"/>
    <circle cx="70" cy="52" r="6" fill="#0f172a"/>
    <path d="M52 63c-6 0-8 4-8 8 0 6 16 6 16 0 0-4-2-8-8-8z" fill="#0f172a"/>
    <path d="M16 30c-6 0-10 6-10 12 0 6 6 10 14 8 4-1 8-4 10-8 2-4 0-12-14-12z" fill="#fee2e2"/>
    <path d="M88 30c6 0 10 6 10 12 0 6-6 10-14 8-4-1-8-4-10-8-2-4 0-12 14-12z" fill="#fee2e2"/>
    <circle cx="52" cy="46" r="5" fill="#0f172a"/>
  </g>
</svg>

